<svg width="365" height="306" version="1.1" xmlns="http://www.w3.org/2000/svg">
 <path d="m38.148 305.11 111.1-145.26-114.38-159.71 73.514 0.06108 91.138 125.58-136.27 179.33zm217.45 0.10271-90.509-125.8 137.4-179.41h24.482l-111.55 145.94 113.69 159.27z"/>
 <path d="m182.48 58.23c-8.851 0-18.307 0.68536-26.82 1.5025 15.166 19.78 27.75 36.53 42.233 55.552-8.1288-17.493-24.836-34.268-19.06-42.895 5.7172-8.5397 16.251-7.1023 17.053-7.1023 16.888 0 33.145 1.9074 48.344 5.4375l3.5625-4.9062c-20.271-5.2183-42.288-7.5887-65.312-7.5887zm91.469 15.964-3.2812 4.6875c46.826 18.337 78.5 53.36 78.5 93.5 0 59.106-68.665 107.06-153.28 107.06-84.616-1e-5 -153.31-47.956-153.31-107.06 1e-5 -32.188 20.372-61.08 52.594-80.719l-9.9062-15.094c-50.546 21.432-84.094 59.05-84.094 101.87 0 66.634 81.222 120.69 181.31 120.69 100.09 0 181.34-54.054 181.34-120.69 0-44.433-36.123-83.292-89.875-104.25z"/>
 <rect x="464.65" y="155.86" width=".50508" height="0"/>
</svg>
