<?xml version="1.0" encoding="UTF-8" standalone="no"?>
<svg
   width="365"
   height="306"
   version="1.1"
   id="svg20"
   sodipodi:docname="Xorg.svg"
   inkscape:version="1.1 (c4e8f9ed74, 2021-05-24)"
   xmlns:inkscape="http://www.inkscape.org/namespaces/inkscape"
   xmlns:sodipodi="http://sodipodi.sourceforge.net/DTD/sodipodi-0.dtd"
   xmlns="http://www.w3.org/2000/svg"
   xmlns:svg="http://www.w3.org/2000/svg">
  <sodipodi:namedview
     id="namedview22"
     pagecolor="#ffffff"
     bordercolor="#666666"
     borderopacity="1.0"
     inkscape:pageshadow="2"
     inkscape:pageopacity="0.0"
     inkscape:pagecheckerboard="0"
     showgrid="false"
     inkscape:zoom="1.4900482"
     inkscape:cx="176.50436"
     inkscape:cy="168.45093"
     inkscape:window-width="1920"
     inkscape:window-height="1053"
     inkscape:window-x="0"
     inkscape:window-y="27"
     inkscape:window-maximized="1"
     inkscape:current-layer="g18"
     width="294.243px" />
  <style
     type="text/css"
     id="style2"><![CDATA[
#P1 {fill:url(#LO)}
rect {opacity:.40740739;fill:#000cff;width:.50507629;height:0}
]]></style>
  <defs
     id="defs9">
    <linearGradient
       id="LO"
       gradientUnits="userSpaceOnUse"
       x1="319.20822"
       y1="235.14877"
       x2="657.65295"
       y2="269.49396">
      <stop
         style="stop-color:#e54c18"
         offset="0"
         id="stop4" />
      <stop
         style="stop-color:#fec350"
         offset="1"
         id="stop6" />
    </linearGradient>
  </defs>
  <g
     transform="translate(142.2839,-24.99705)"
     id="g18">
    <g
       id="g1041"
       transform="translate(-33.000035,-19.896013)">
      <path
         d="M -71.1363,349.99832 39.96098,204.74212 -74.41575,45.029143 -0.90139,45.090223 90.23662,170.67309 -46.03351,349.99832 Z M 146.31149,350.10103 55.80269,224.30257 193.20753,44.893063 h 24.48173 L 106.13859,190.83461 219.82702,350.10103 Z"
         id="path11"
         style="fill:#000000" />
      <path
         id="P1"
         d="m 73.20051,103.12264 c -8.85103,0 -18.30729,0.68536 -26.82011,1.50253 15.16593,19.77999 27.75007,36.52951 42.23287,55.55188 -8.12876,-17.49293 -24.83564,-34.26759 -19.05997,-42.89467 5.71717,-8.53969 16.25107,-7.10232 17.05346,-7.10232 16.88849,0 33.14525,1.90739 48.34375,5.4375 l 3.5625,-4.90625 c -20.27081,-5.21826 -42.28849,-7.58867 -65.3125,-7.58867 z m 91.46875,15.96367 -3.28125,4.6875 c 46.8258,18.33664 78.5,53.36029 78.5,93.49999 0,59.10603 -68.66485,107.0625 -153.28125,107.0625 -84.6164,-10e-6 -153.3125,-47.95648 -153.3125,-107.0625 1e-5,-32.18776 20.37158,-61.08002 52.59375,-80.71874 l -9.90625,-15.09375 c -50.54614,21.43183 -84.09374,59.04962 -84.09375,101.87499 0,66.63368 81.2225,120.6875 181.3125,120.6875 100.08999,0 181.34374,-54.05381 181.34375,-120.6875 0,-44.43292 -36.12255,-83.29245 -89.875,-104.24999 z"
         style="fill:#000000" />
    </g>
    <rect
       x="322.36493"
       y="180.85307"
       width="0.50507629"
       height="0"
       id="rect16" />
  </g>
</svg>
